<svg width="30" height="30" viewBox="0 0 30 30" fill="none" xmlns="http://www.w3.org/2000/svg">
<g clip-path="url(#clip0_101_499)">
<ellipse cx="16.4471" cy="6.03683" rx="4.0504" ry="1.59561" fill="#2E2524"/>
<path d="M27.9846 16.846C27.9846 22.1963 23.5645 27.5243 15.7107 27.5243C9.50631 27.5243 4.48001 22.1993 4.48001 16.846C4.48001 11.5008 9.2628 6.84271 15.7107 6.84271C20.6955 6.84271 23.7568 8.01471 25.5733 9.83603C27.3895 11.657 27.9846 14.1502 27.9846 16.846Z" fill="#FFC330" stroke="black" stroke-width="0.245479"/>
<path d="M18.4722 14.023C18.4722 15.9851 16.8275 17.5824 14.7901 17.5824C12.7526 17.5824 11.1079 15.9851 11.1079 14.023C11.1079 12.0609 12.7526 10.4636 14.7901 10.4636C16.8275 10.4636 18.4722 12.0609 18.4722 14.023Z" fill="#ECEEF1" stroke="black" stroke-width="0.245479"/>
<path d="M25.2229 13.7775C25.2229 15.7581 23.8078 17.3369 22.0931 17.3369C20.3784 17.3369 18.9632 15.7581 18.9632 13.7775C18.9632 11.7969 20.3784 10.218 22.0931 10.218C23.8078 10.218 25.2229 11.7969 25.2229 13.7775Z" fill="#ECEEF1" stroke="black" stroke-width="0.245479"/>
<path d="M21.909 19.4235C21.909 20.0505 21.547 20.6305 20.9366 21.0588C20.3266 21.4869 19.4774 21.7556 18.5336 21.7556C17.5898 21.7556 16.7406 21.4869 16.1306 21.0588C15.5203 20.6305 15.1583 20.0505 15.1583 19.4235C15.1583 18.7965 15.5203 18.2165 16.1306 17.7882C16.7406 17.3601 17.5898 17.0915 18.5336 17.0915C19.4774 17.0915 20.3266 17.3601 20.9366 17.7882C21.547 18.2165 21.909 18.7965 21.909 19.4235Z" fill="#D39679" stroke="black" stroke-width="0.245479"/>
<path d="M15.5879 19.2394C16.0788 19.6281 17.3144 20.2493 18.3495 20.2827C20.252 20.344 20.9475 19.5462 21.6021 19.2394" stroke="black" stroke-width="0.245479"/>
<circle cx="9.26682" cy="19.7917" r="2.70026" fill="#A2311D" stroke="black" stroke-width="0.245479"/>
<path d="M27.3364 20.0996C26.827 21.4652 25.8274 21.9965 24.9876 21.6833C24.5687 21.527 24.2753 21.1559 24.1483 20.6445C24.0211 20.1321 24.064 19.4854 24.3178 18.8052C24.5718 18.1241 24.9526 17.6152 25.3731 17.3192C25.792 17.0243 26.2462 16.942 26.6665 17.0988C27.0815 17.2536 27.3772 17.6515 27.5055 18.1975C27.6335 18.7424 27.5897 19.4205 27.3364 20.0996Z" fill="#A2311D" stroke="black" stroke-width="0.245479"/>
<path d="M0.859175 14.8208C0.920544 13.7775 0.368218 13.1638 0 11.6296C1.47287 9.29751 1.87791 8.37696 4.47998 6.16766C7.73257 3.40602 8.95997 3.22191 11.292 2.79233C13.6241 2.36274 14.9128 3.77424 14.7901 3.03781C14.6673 2.30137 16.0175 1.38083 17.3062 1.25809C18.595 1.13535 23.0136 2.42411 24.9161 4.14246C26.8185 5.86081 29.2733 7.88601 29.887 11.0159C30.378 13.5197 29.1506 14.6776 28.4755 14.9435C27.8823 14.1253 26.6099 12.4151 26.2662 12.1205C25.8366 11.7523 24.3024 12.2432 23.1363 11.7523C21.9703 11.2613 22.2772 10.8317 20.7429 8.31559C19.2087 5.79944 16.938 4.01972 15.0969 5.00163C13.2558 5.98355 13.5013 11.2 13.6241 12.1205C13.7468 13.0411 13.3786 13.9002 12.7035 13.9616C12.0284 14.023 11.9057 13.532 11.0465 13.6547C10.1874 13.7775 10.5556 14.9435 10.126 15.3117C9.6964 15.6799 9.38955 15.1276 8.95997 15.6186C8.53038 16.1095 9.14407 17.0914 8.22353 17.3369C7.30299 17.5824 6.07559 16.5391 4.72546 16.6619C3.62081 16.6005 3.98903 17.521 3.68218 17.7665C3.37533 18.012 2.70026 18.1347 2.0252 17.7665C1.35013 17.3983 0.797805 15.8641 0.859175 14.8208Z" fill="#575255" stroke="#575255" stroke-width="0.122739"/>
<circle cx="16.8153" cy="13.6467" r="0.613696" fill="black"/>
<circle cx="23.4432" cy="13.7694" r="0.613696" fill="black"/>
</g>
<defs>
<clipPath id="clip0_101_499">
<rect width="30" height="30" fill="white"/>
</clipPath>
</defs>
</svg>
